<svg xmlns="http://www.w3.org/2000/svg" viewBox="0 0 360 360" role="img" aria-label="講師プロフィール画像のプレースホルダー">
  <defs>
    <linearGradient id="bg" x1="0" x2="1" y1="0" y2="1">
      <stop offset="0" stop-color="#ffe4ee"/>
      <stop offset="1" stop-color="#fff4d8"/>
    </linearGradient>
  </defs>
  <rect width="360" height="360" fill="url(#bg)"/>
  <circle cx="180" cy="136" r="70" fill="#7a554d"/>
  <circle cx="180" cy="151" r="62" fill="#ffd8c9"/>
  <path d="M95 315c18-72 57-108 85-108s67 36 85 108" fill="#fff"/>
  <path d="M125 108c26-46 92-62 126-5 8 14 11 41 7 62-33-9-77-40-99-73-7 28-22 51-44 70-5-18-2-38 10-54z" fill="#6b493f"/>
  <circle cx="158" cy="153" r="7" fill="#3b2d2b"/>
  <circle cx="202" cy="153" r="7" fill="#3b2d2b"/>
  <path d="M162 185c12 10 26 10 38 0" stroke="#3b2d2b" stroke-width="6" stroke-linecap="round" fill="none"/>
  <text x="180" y="286" text-anchor="middle" font-family="Arial, sans-serif" font-size="30" fill="#e96f94">Teacher</text>
</svg>
