<svg xmlns="http://www.w3.org/2000/svg" viewBox="0 0 900 680" role="img" aria-label="親子で音楽を楽しむイラスト">
  <defs>
    <linearGradient id="bg" x1="0" x2="1" y1="0" y2="1">
      <stop offset="0" stop-color="#ffe5ee"/>
      <stop offset="1" stop-color="#fff3ca"/>
    </linearGradient>
    <filter id="shadow" x="-20%" y="-20%" width="140%" height="140%">
      <feDropShadow dx="0" dy="18" stdDeviation="18" flood-color="#6b4a43" flood-opacity=".16"/>
    </filter>
  </defs>
  <rect width="900" height="680" fill="url(#bg)"/>
  <circle cx="710" cy="120" r="78" fill="#fff" opacity=".55"/>
  <circle cx="130" cy="530" r="110" fill="#fff" opacity=".45"/>
  <g fill="none" stroke="#d96788" stroke-width="9" stroke-linecap="round" opacity=".42">
    <path d="M145 145v95c0 24-20 40-44 35s-37-25-30-45c7-19 31-27 55-16"/>
    <path d="M742 274v-96l82-24v94"/>
    <path d="M742 274c0 23-20 39-44 34s-36-25-28-44c8-19 32-27 55-16"/>
  </g>
  <g filter="url(#shadow)">
    <rect x="170" y="360" width="560" height="115" rx="32" fill="#5b403c"/>
    <rect x="220" y="392" width="465" height="45" rx="12" fill="#fff"/>
    <g fill="#2f2220">
      <rect x="250" y="392" width="16" height="45"/>
      <rect x="300" y="392" width="16" height="45"/>
      <rect x="350" y="392" width="16" height="45"/>
      <rect x="432" y="392" width="16" height="45"/>
      <rect x="482" y="392" width="16" height="45"/>
      <rect x="565" y="392" width="16" height="45"/>
      <rect x="615" y="392" width="16" height="45"/>
    </g>
    <rect x="210" y="468" width="500" height="45" rx="20" fill="#80625d"/>
  </g>
  <g filter="url(#shadow)">
    <circle cx="330" cy="235" r="90" fill="#ffd1dd"/>
    <circle cx="545" cy="245" r="74" fill="#ffe7a8"/>
    <path d="M265 335c17-60 60-92 118-92s98 33 117 92" fill="#fff"/>
    <path d="M495 338c10-48 43-75 89-75s78 28 93 75" fill="#fff"/>
    <circle cx="313" cy="235" r="10" fill="#3b2d2b"/>
    <circle cx="360" cy="235" r="10" fill="#3b2d2b"/>
    <path d="M320 272c22 17 45 17 66 0" stroke="#3b2d2b" stroke-width="8" stroke-linecap="round" fill="none"/>
    <circle cx="520" cy="247" r="8" fill="#3b2d2b"/>
    <circle cx="560" cy="247" r="8" fill="#3b2d2b"/>
    <path d="M525 276c17 12 34 12 51 0" stroke="#3b2d2b" stroke-width="7" stroke-linecap="round" fill="none"/>
  </g>
  <g fill="#e96f94" opacity=".9">
    <text x="132" y="138" font-family="Arial, sans-serif" font-size="54">♪</text>
    <text x="755" y="318" font-family="Arial, sans-serif" font-size="64">♫</text>
    <text x="690" y="104" font-family="Arial, sans-serif" font-size="42">♩</text>
  </g>
</svg>
